<svg width="444" height="444" viewBox="0 0 444 444" fill="none" xmlns="http://www.w3.org/2000/svg">
<circle cx="222" cy="222" r="222" fill="#333333"/>
<path d="M153.222 232.085V161.557H156.808V232.085H153.222ZM160.394 232.085V161.557H163.98V232.085H160.394ZM167.566 232.085V161.557H181.911V232.085H167.566ZM171.511 241.29H174.5V276.912H171.511V241.29ZM204.633 232.085V161.557H208.219V232.085H204.633ZM211.805 232.085V161.557H215.391V232.085H211.805ZM218.978 232.085V161.557H233.322V232.085H218.978ZM222.922 241.29H225.911V276.912H222.922V241.29ZM256.044 232.085V161.557H259.63V232.085H256.044ZM263.217 232.085V161.557H266.803V232.085H263.217ZM270.389 232.085V161.557H284.734V232.085H270.389ZM274.334 241.29H277.322V276.912H274.334V241.29Z" fill="white"/>
</svg>
